<svg width="500" height="400" viewBox="0 0 680 507" fill="none" xmlns="http://www.w3.org/2000/svg">
<g clip-path="url(#clip0_4_28)">
<mask id="mask0_4_28" style="mask-type:luminance" maskUnits="userSpaceOnUse" x="61" y="52" width="619" height="436">
<path d="M680 52H61V488H680V52Z" fill="white"/>
</mask>
<g mask="url(#mask0_4_28)">
<path d="M110.356 98.2032V448.842H431.699L689.44 98.2032H110.356Z" fill="#3A3A3A"/>
<path d="M1204.59 96.938L735.61 98.2033L477.869 448.842H539.951L772.431 132.574H1204.59V96.938Z" fill="#3A3A3A"/>
<path d="M195.969 178.522H191.099L181.359 138.408L171.619 178.522H166.876L157.072 134.066H161.032L169.471 174.89L179.211 134.066H183.562L193.493 174.89L201.995 134.066H205.691L195.951 178.522H195.969Z" fill="#EABB26"/>
<path d="M254.765 156.321C254.765 170.922 247.629 179.232 236.587 179.232C225.545 179.232 218.481 171.185 218.481 156.385C218.481 141.585 225.945 133.347 236.587 133.347C247.228 133.347 254.765 141.33 254.765 156.321ZM222.568 156.385C222.568 169.693 228.348 175.919 236.587 175.919C245.28 175.919 250.669 169.684 250.669 156.321C250.669 142.959 245.153 136.651 236.587 136.651C228.021 136.651 222.568 142.886 222.568 156.385Z" fill="#EABB26"/>
<path d="M285.524 158.597H276.63V178.522H272.734V134.066H283.512C294.226 134.066 299.351 138.281 299.351 146.136C299.351 152.753 295.719 156.258 289.42 157.887L301.627 178.522H297.021L285.533 158.597H285.524ZM284.031 155.42C291.104 155.42 295.191 152.626 295.191 146.136C295.191 140.229 291.878 137.243 283.376 137.243H276.621V155.42H284.022H284.031Z" fill="#EABB26"/>
<path d="M321.417 178.522H317.521V134.066H321.417V178.522ZM326.287 154.51L345.822 178.522H341.079L321.672 154.701L340.233 134.066H344.711L326.278 154.51H326.287Z" fill="#EABB26"/>
<path d="M230.506 258.222H206.501L199.128 206.93L191.163 258.222H167.759L157.3 188.999H175.624L181.304 244.577L189.77 188.999H209.096L216.669 244.577L223.642 188.999H241.275L230.515 258.222H230.506Z" fill="white"/>
<path d="M275.529 258.222H257.105V188.999H275.529V258.222Z" fill="white"/>
<path d="M343.665 203.044H327.325V258.222H308.9V203.044H291.568V188.999H345.558L343.665 203.044Z" fill="white"/>
<path d="M397.445 229.44H379.121V258.222H360.696V188.999H379.121V215.195H397.445V188.999H415.869V258.222H397.445V229.44Z" fill="white"/>
<path d="M280.754 371.081C280.754 399.771 262.029 422.154 223.77 422.154C185.51 422.154 166.785 401.401 166.785 371.081V277.072H204.435V369.861C204.435 386.546 209.933 394.683 223.77 394.683C237.606 394.683 242.895 386.546 242.895 369.861V277.072H280.745V371.081H280.754Z" fill="#EABB26"/>
<path d="M419.137 292.128L402.242 312.071C392.475 304.334 382.707 300.474 371.51 300.474C360.314 300.474 354.415 304.743 354.415 312.48C354.415 320.618 359.704 323.467 380.868 330.385C408.751 339.132 422.787 351.138 422.787 376.779C422.787 402.42 401.213 422.154 364.993 422.154C339.149 422.154 321.444 412.797 309.847 401.601L328.362 381.048C338.74 389.595 349.936 394.884 363.573 394.884C377.209 394.884 383.717 388.776 383.717 379.619C383.717 370.462 378.829 366.193 359.294 360.286C326.323 349.909 315.746 336.274 315.746 315.521C315.746 289.679 338.33 273.395 368.652 273.395C390.627 273.395 406.502 280.113 419.119 292.119L419.137 292.128Z" fill="#EABB26"/>
<path d="M349.418 155.621H415.869" stroke="#EABB26" stroke-width="2" stroke-miterlimit="10"/>
</g>
</g>
<defs>
<clipPath id="clip0_4_28">
<rect width="619" height="436" fill="white" transform="translate(61 52)"/>
</clipPath>
</defs>
</svg>
