<svg width="576" height="389" viewBox="0 0 576 389" fill="none" xmlns="http://www.w3.org/2000/svg">
<mask id="mask0_8_212" style="mask-type:luminance" maskUnits="userSpaceOnUse" x="0" y="-14" width="610" height="430">
<path d="M0 416L610 416V-14L0 -14V416Z" fill="white"/>
</mask>
<g mask="url(#mask0_8_212)">
<path d="M561.362 31.5674V377.381H244.691L-9.30249 31.5674H561.362Z" fill="#EABB26"/>
<path d="M-516.966 30.3196L-54.8014 31.5674L199.192 377.381H138.012L-91.0874 65.4647H-516.966V30.3196Z" fill="#EABB26"/>
<path d="M329.239 245.275H310.813L306.974 257.241H303.071L317.72 213.397H322.52L337.106 257.241H333.078L329.239 245.275ZM328.216 242.007L320.089 216.53L311.898 242.007H328.207H328.216Z" fill="#3A3A3A"/>
<path d="M378.164 226.522C378.164 236.378 371.32 240.158 361.793 240.158H355.522V257.25H351.683V213.406H361.981C372.154 213.406 378.164 217.437 378.164 226.531V226.522ZM374.136 226.585C374.136 219.161 369.597 216.539 361.918 216.539H355.522V237.025H361.793C369.086 237.025 374.136 234.655 374.136 226.594V226.585Z" fill="#3A3A3A"/>
<path d="M421.017 226.522C421.017 236.378 414.172 240.158 404.645 240.158H398.375V257.25H394.535V213.406H404.834C415.006 213.406 421.017 217.437 421.017 226.531V226.522ZM416.989 226.585C416.989 219.161 412.45 216.539 404.771 216.539H398.375V237.025H404.645C411.938 237.025 416.989 234.655 416.989 226.594V226.585Z" fill="#3A3A3A"/>
<path d="M441.218 253.794H459.509L458.998 257.25H437.379V213.406H441.218V253.794Z" fill="#3A3A3A"/>
<path d="M480.106 240.095V257.25H476.266V240.158L462.254 213.397H466.542L478.312 236.702L489.893 213.397H493.983L480.106 240.086V240.095Z" fill="#3A3A3A"/>
<path d="M356.599 335.844H333.724L316.446 284.468C317.326 290.95 318.806 300.088 318.806 312.755V335.835H302.713V267.565H325.094L342.955 319.138C341.878 312.36 340.497 303.913 340.497 292.323V267.574H356.599V335.844Z" fill="white"/>
<path d="M436.886 301.668C436.886 323.869 425.403 337.621 405.569 337.621C385.735 337.621 374.352 324.362 374.352 301.668C374.352 278.974 385.735 265.814 405.569 265.814C425.403 265.814 436.886 278.974 436.886 301.668ZM393.208 301.668C393.208 318.168 397.334 324.56 405.578 324.56C413.822 324.56 417.949 318.177 417.949 301.668C417.949 285.16 414.02 278.876 405.578 278.876C397.137 278.876 393.208 285.16 393.208 301.668Z" fill="white"/>
<path d="M521.891 335.844H498.235L490.969 285.258L483.12 335.844H460.057L449.749 267.574H467.807L473.405 322.387L481.748 267.574H500.792L508.256 322.387L515.127 267.574H532.503L521.9 335.844H521.891Z" fill="white"/>
<path d="M514.912 234.664H532.853" stroke="#3A3A3A" stroke-width="2" stroke-miterlimit="10"/>
</g>
<path d="M414.002 89.2628H379.196V145.226H414.002V168.234L464.937 117.244L414.002 66.2637V89.2628Z" fill="white"/>
</svg>
