<svg width="496" height="179" viewBox="0 0 496 179" fill="none" xmlns="http://www.w3.org/2000/svg">
<path d="M100.369 101.127C99.654 101.127 98.9183 101.127 98.1826 101.085C73.5477 100.103 58.2454 77.2257 55.8281 55.4362H3.27906C1.47137 55.4362 0 53.9724 0 52.174C0 50.3757 1.47137 48.9119 3.27906 48.9119H55.4918C55.66 29.0881 66.5691 5.91844 97.7202 0.0632962C97.9725 0.0214738 98.2457 -0.0203486 98.519 0.0214738C128.136 1.7571 137.069 23.9857 137.447 24.9267C138.099 26.5996 137.258 28.5025 135.556 29.1508C133.853 29.799 131.961 28.9626 131.31 27.2688C131.015 26.4951 123.49 8.19776 98.519 6.54577C71.6349 11.7736 62.113 31.1583 62.0289 48.9119H139.507C140.369 48.9119 141.21 49.2674 141.84 49.8738C142.45 50.4802 142.807 51.3167 142.786 52.195C142.786 53.1987 142.492 76.8284 127.631 90.9643C120.527 97.7187 111.362 101.127 100.369 101.127ZM62.4283 55.4362C64.7825 74.2563 77.7726 93.7455 98.4559 94.5611C108.608 94.9793 116.869 92.1772 123.091 86.2593C132.949 76.912 135.429 61.9814 136.039 55.4153H62.4283V55.4362Z" fill="white"/>
<path d="M232.246 101.127C230.985 101.127 229.765 100.395 229.24 99.161L191.699 13.0068L153.254 99.1819C152.518 100.834 150.606 101.587 148.924 100.834C147.263 100.102 146.528 98.1782 147.263 96.5262L188.735 3.57585C189.261 2.40482 190.438 1.6311 191.741 1.6311C193.044 1.6311 194.221 2.40482 194.726 3.59676L235.231 96.568C235.945 98.22 235.189 100.144 233.528 100.855C233.108 101.043 232.666 101.127 232.225 101.127H232.246Z" fill="white"/>
<path d="M342.557 101.127C340.749 101.127 339.278 99.6629 339.278 97.8645V20.0539L303.397 99.2028C302.872 100.374 301.695 101.127 300.412 101.127C299.13 101.127 297.953 100.353 297.428 99.1819L262.325 20.3048V97.8436C262.325 99.642 260.853 101.106 259.046 101.106C257.238 101.106 255.767 99.642 255.767 97.8436V4.89324C255.767 3.34581 256.86 2.0284 258.373 1.69382C259.887 1.35924 261.421 2.15387 262.052 3.55492L300.454 89.8555L339.572 3.55492C340.203 2.15387 341.737 1.38015 343.25 1.71473C344.764 2.0284 345.836 3.36672 345.836 4.89324V97.8645C345.836 99.6629 344.364 101.127 342.557 101.127Z" fill="white"/>
<path d="M363.24 101.127C362.799 101.127 362.357 101.043 361.916 100.855C360.255 100.123 359.52 98.1991 360.255 96.5471L401.622 3.57585C402.147 2.40482 403.325 1.6311 404.628 1.6311C405.931 1.6311 407.108 2.38391 407.634 3.57585L448.138 94.6024H492.742C494.55 94.6024 496.021 96.0661 496.021 97.8645C496.021 99.6629 494.55 101.127 492.742 101.127H446.015C444.712 101.127 443.535 100.374 443.01 99.1819L404.628 12.9441L366.246 99.1819C365.699 100.395 364.501 101.127 363.24 101.127Z" fill="white"/>
<path d="M79.8325 154.868C78.9077 150.833 75.9439 147.633 72.2865 146.713C70.9412 146.378 69.596 146.358 68.4189 146.337L64.6564 146.295L64.3831 134.292C64.3831 133.309 63.5844 132.493 62.6175 132.493C61.6506 132.493 60.8518 133.288 60.8518 134.25V163.756C60.8518 164.718 61.6506 165.512 62.6175 165.512H69.9533C73.7578 165.512 76.5535 164.425 78.2981 162.25C80.6943 159.26 80.0007 155.538 79.8325 154.827V154.868ZM75.5235 160.075C74.2413 161.665 71.782 162.02 69.9533 162.02H64.3831V149.829L68.3558 149.871C69.4068 149.871 70.4578 149.892 71.4247 150.142C73.7579 150.728 75.7547 152.945 76.3853 155.663C76.6165 156.625 76.6796 158.653 75.5445 160.096L75.5235 160.075Z" fill="white"/>
<path d="M137.111 159.908V148.072C137.111 147.111 136.312 146.316 135.345 146.316C134.378 146.316 133.58 147.111 133.58 148.072V159.532L133.433 159.783C132.55 161.267 130.763 162.522 129.292 162.062C128.766 161.916 128.262 161.665 127.82 161.456L127.652 161.372C127.211 161.163 126.727 160.912 126.223 160.724L125.55 160.473V148.093C125.55 147.131 124.751 146.337 123.785 146.337C122.818 146.337 122.019 147.131 122.019 148.093V161.999C122.019 162.961 122.818 163.756 123.785 163.756C124.478 163.756 125.193 164.111 126.055 164.53C126.937 164.969 127.631 165.282 128.346 165.491C128.871 165.638 129.397 165.722 129.943 165.722C133.117 165.722 135.892 163.17 136.985 160.64C137.09 160.431 137.132 160.18 137.132 159.95L137.111 159.908Z" fill="white"/>
<path d="M182.387 148.072C182.387 147.111 181.589 146.316 180.622 146.316C179.655 146.316 178.856 147.111 178.856 148.072V163.777C178.856 164.739 179.655 165.533 180.622 165.533C181.589 165.533 182.387 164.739 182.387 163.777V148.072Z" fill="white"/>
<path d="M180.937 137.449C179.844 137.449 179.171 137.972 179.171 138.181V140.482C179.171 140.712 179.844 141.213 180.937 141.213C182.03 141.213 182.703 140.691 182.703 140.482V138.181C182.703 137.951 182.03 137.449 180.937 137.449Z" fill="white"/>
<path d="M335.095 148.072C335.095 147.111 334.296 146.316 333.329 146.316C332.362 146.316 331.564 147.111 331.564 148.072V163.777C331.564 164.739 332.362 165.533 333.329 165.533C334.296 165.533 335.095 164.739 335.095 163.777V148.072Z" fill="white"/>
<path d="M333.644 137.449C332.551 137.449 331.879 137.972 331.879 138.181V140.482C331.879 140.712 332.551 141.213 333.644 141.213C334.737 141.213 335.41 140.691 335.41 140.482V138.181C335.41 137.951 334.737 137.449 333.644 137.449Z" fill="white"/>
<path d="M227.327 133.288C227.327 132.326 226.528 131.531 225.562 131.531C224.595 131.531 223.796 132.326 223.796 133.288V163.777C223.796 164.738 224.595 165.533 225.562 165.533C226.528 165.533 227.327 164.738 227.327 163.777V133.288Z" fill="white"/>
<path d="M288.81 165.471V134.94C288.81 133.978 288.011 133.184 287.044 133.184C286.077 133.184 285.278 133.978 285.278 134.94V146.337H284.038C283.534 146.316 283.029 146.295 282.504 146.295C280.969 146.295 278.93 146.358 276.934 146.818C272.982 147.717 269.976 150.122 268.862 153.217C268.379 154.555 268.294 155.851 268.252 156.834C268.126 160.765 269.219 162.459 271.405 164.299C273.045 165.68 275.294 166.349 278.258 166.349C288.726 166.349 288.81 165.471 288.81 165.471ZM285.257 162.815L284.585 163.066C277.333 164.111 274.663 162.438 273.675 161.602C271.889 160.117 271.721 158.57 271.784 156.96C271.826 155.872 271.931 155.078 272.183 154.408C273.024 152.087 275.588 150.749 277.732 150.247C279.372 149.871 281.074 149.808 282.504 149.808C283.071 149.808 283.639 149.808 284.227 149.808H285.257V162.773V162.815Z" fill="white"/>
<path d="M390.418 164.969C390.734 165.303 391.175 165.512 391.659 165.533C392.121 165.596 392.52 165.491 392.836 165.219C393.235 164.885 393.466 164.362 393.487 163.839C393.676 158.151 393.655 154.847 393.466 149.055C393.382 146.546 392.541 144.936 390.965 144.287C390.166 143.953 389.346 143.974 388.821 143.995C386.887 144.078 384.932 143.974 383.02 143.869C381.275 143.765 379.719 143.681 378.269 143.681C377.302 143.681 376.503 144.476 376.503 145.437V163.756C376.503 164.718 377.302 165.512 378.269 165.512C379.236 165.512 380.035 164.718 380.035 163.756V147.215L382.683 147.361C384.827 147.487 386.782 147.57 388.758 147.466L389.704 147.403L389.851 148.323C389.893 148.511 389.914 148.783 389.914 149.139C390.103 154.847 390.124 158.11 389.935 163.672C389.935 164.132 390.082 164.592 390.418 164.927V164.969Z" fill="white"/>
<path d="M443.283 178.728C448.138 175.55 453.624 170.594 453.099 167.122V167.081V148.428C453.099 147.717 452.658 147.069 452.006 146.797C448.285 145.27 442.505 145.437 438.574 147.194C433.782 149.327 431.428 153.3 432.29 157.817C433.067 161.936 436.346 165.408 439.583 165.554C440.466 165.596 441.307 165.68 442.316 165.784H442.484C444.439 165.993 446.478 166.202 448.475 166.014L449.631 165.889V167.708C449.147 169.778 443.976 174.065 441.349 175.801C440.529 176.344 440.319 177.432 440.845 178.247C441.37 179.021 442.505 179.251 443.304 178.749L443.283 178.728ZM448.685 162.396C448.096 162.48 447.445 162.522 446.709 162.522C445.406 162.522 444.04 162.376 442.82 162.25C441.769 162.146 440.739 162.041 439.73 161.999C438.469 161.936 436.304 160.013 435.737 157.127C435.358 155.078 435.779 152.255 440.004 150.393C442.316 149.369 445.868 148.992 448.664 149.494L449.526 149.641L449.568 162.271L448.664 162.396H448.685Z" fill="white"/>
</svg>
