<svg width="37" height="36" viewBox="0 0 37 36" fill="none" xmlns="http://www.w3.org/2000/svg">
<g clip-path="url(#clip0_158_20)">
<path d="M36.8926 5.33209C36.6506 4.04266 36.0672 2.92921 35.1601 1.98534C34.5719 1.37582 33.8892 0.89748 33.1134 0.556726C32.3057 0.201573 31.4611 0 30.5748 0C22.5612 0 14.5477 0 6.53262 0C6.31144 0 6.08867 0.0111985 5.8675 0.0335955C4.39782 0.182376 3.13008 0.777496 2.05306 1.77736C1.41999 2.36608 0.929568 3.06039 0.57537 3.84909C0.201941 4.68258 0.0016027 5.55286 0.0016027 6.46314C0 14.1021 0 21.7411 0 29.3801C0 29.5673 0.0112189 29.7544 0.0224378 29.9416C0.0641081 30.6999 0.253227 31.4214 0.559343 32.1141C0.883089 32.8452 1.32864 33.4947 1.89119 34.0627C2.47938 34.6562 3.15572 35.1233 3.92181 35.4561C4.71996 35.8032 5.55176 35.9968 6.42524 35.9984C10.4496 35.9984 14.474 35.9984 18.4984 35.9984C22.5228 35.9984 26.5007 35.9984 30.5026 35.9952C30.8152 35.9952 31.1293 35.9712 31.4386 35.9264C32.7929 35.7264 33.9661 35.1441 34.9614 34.2098C35.5832 33.6259 36.0688 32.9428 36.4198 32.1653C36.7997 31.3238 36.9984 30.4439 36.9984 29.5209C36.9984 21.8643 36.9984 14.2093 36.9984 6.55273C36.9984 6.14158 36.9663 5.73524 36.891 5.33209H36.8926ZM25.0951 10.3458C25.0951 10.509 24.9621 10.6434 24.797 10.6434H22.4282C21.8464 10.6434 21.3752 11.1137 21.3752 11.6944V14.1709H24.7441C24.9188 14.1709 25.0551 14.3197 25.0406 14.4925L24.7457 17.9816C24.7329 18.1352 24.6031 18.2536 24.4492 18.2536H21.3752V29.836C21.3752 29.9992 21.2422 30.1336 21.0771 30.1336H16.838C16.6745 30.1336 16.5399 30.0008 16.5399 29.836V18.2536H14.4195C14.256 18.2536 14.1214 18.1208 14.1214 17.956V14.4669C14.1214 14.3037 14.2544 14.1693 14.4195 14.1693H16.5399V10.805C16.5399 8.45967 18.4439 6.55913 20.7935 6.55913H24.797C24.9605 6.55913 25.0951 6.69191 25.0951 6.85669V10.3458Z" fill="white"/>
</g>
<defs>
<clipPath id="clip0_158_20">
<rect width="37" height="36" fill="white"/>
</clipPath>
</defs>
</svg>
