<svg width="45" height="45" viewBox="0 0 45 45" fill="none" xmlns="http://www.w3.org/2000/svg">
<path d="M44.13 22.09C44.13 24.82 44.13 27.56 44.13 30.29C44.12 37.19 39.42 42.78 32.63 43.94C31.92 44.06 31.19 44.1 30.46 44.1C24.87 44.11 19.27 44.11 13.67 44.1C6.11 44.1 0.0400049 38.06 0.0200049 30.49C4.88292e-06 24.87 4.88292e-06 19.26 0.0200049 13.64C0.0400049 6.07 6.11 0.02 13.67 0C19.26 0 24.86 0 30.45 0C38.01 0.01 44.08 6.06 44.12 13.63C44.14 16.45 44.12 19.27 44.12 22.09H44.13ZM22.04 39.11V39.16C24.73 39.16 27.42 39.16 30.11 39.16C30.73 39.16 31.36 39.15 31.96 39.03C36.3 38.21 39.14 34.77 39.16 30.28C39.18 24.81 39.16 19.35 39.16 13.88C39.16 13.31 39.14 12.72 39.03 12.16C38.21 7.85 34.77 5 30.33 4.97C26.53 4.95 22.73 4.96 18.93 4.97C16.9 4.97 14.87 4.92 12.85 5.03C8.79 5.26 5.21 8.79 5.05 12.86C4.9 16.66 4.98 20.46 4.98 24.26C4.98 26.59 4.92 28.92 5.04 31.24C5.25 35.35 8.79 38.92 12.88 39.09C15.93 39.22 18.99 39.12 22.04 39.12V39.11Z" fill="#3A3A3A"/>
<path d="M22.12 10.77C28.33 10.78 33.38 15.88 33.36 22.11C33.34 28.32 28.26 33.37 22.02 33.35C15.81 33.34 10.76 28.25 10.78 22.01C10.79 15.8 15.88 10.76 22.12 10.77ZM28.87 22.06C28.87 18.29 25.86 15.26 22.09 15.26C18.31 15.26 15.28 18.25 15.27 22.03C15.25 25.83 18.28 28.88 22.08 28.87C25.85 28.87 28.87 25.84 28.87 22.07V22.06Z" fill="#3A3A3A"/>
<path d="M35.81 10.12C35.81 11.19 34.98 12.06 33.93 12.07C32.86 12.08 31.94 11.18 31.95 10.13C31.97 9.08995 32.86 8.19995 33.88 8.19995C34.93 8.19995 35.8 9.05995 35.81 10.11V10.12Z" fill="#3A3A3A"/>
</svg>
