<svg width="36" height="36" viewBox="0 0 36 36" fill="none" xmlns="http://www.w3.org/2000/svg">
<g clip-path="url(#clip0_158_16)">
<path d="M27.5306 6.42798C26.3657 6.42798 25.4207 7.37301 25.4207 8.53792C25.4207 9.70283 26.3657 10.6479 27.5306 10.6479C28.6955 10.6479 29.6405 9.70283 29.6405 8.53792C29.6405 7.37301 28.6955 6.42798 27.5306 6.42798Z" fill="white"/>
<path d="M18.1474 9.13379C13.2585 9.13379 9.28186 13.1104 9.28186 17.9993C9.28186 22.8882 13.2585 26.8648 18.1474 26.8648C23.0362 26.8648 27.0129 22.8882 27.0129 17.9993C27.0129 13.1104 23.0362 9.13379 18.1474 9.13379ZM18.1474 23.6788C15.016 23.6788 12.4678 21.1307 12.4678 17.9993C12.4678 14.8679 15.016 12.3198 18.1474 12.3198C21.2787 12.3198 23.8269 14.8679 23.8269 17.9993C23.8269 21.1307 21.2787 23.6788 18.1474 23.6788Z" fill="white"/>
<path d="M25.1867 0H10.8133C4.85146 0 0 4.8499 0 10.8133V25.1867C0 31.1501 4.85146 36 10.8133 36H25.1867C31.1501 36 36 31.1485 36 25.1867V10.8133C36 4.8499 31.1485 0 25.1867 0ZM32.6144 25.1867C32.6144 29.2819 29.2819 32.6129 25.1867 32.6129H10.8133C6.71813 32.6129 3.38713 29.2819 3.38713 25.1867V10.8133C3.38713 6.71813 6.71813 3.38713 10.8133 3.38713H25.1867C29.2819 3.38713 32.6144 6.71813 32.6144 10.8133V25.1867Z" fill="white"/>
</g>
<defs>
<clipPath id="clip0_158_16">
<rect width="36" height="36" fill="white"/>
</clipPath>
</defs>
</svg>
