<svg width="36" height="36" viewBox="0 0 36 36" fill="none" xmlns="http://www.w3.org/2000/svg">
<g clip-path="url(#clip0_158_24)">
<path d="M35.9969 17.9838C35.9969 20.9997 36.0015 24.0156 35.9938 27.0299C35.9923 28.0238 35.9489 29.0177 35.8142 30.0055C35.8049 30.0798 35.7848 30.1479 35.7399 30.2052C35.7028 30.2532 35.6811 30.2935 35.7105 30.36C35.7585 30.4684 35.5727 30.5443 35.6579 30.6666C35.5309 30.8198 35.6037 31.0242 35.517 31.1914C35.4319 31.3571 35.3932 31.5459 35.3111 31.7131C35.1904 31.9593 35.0433 32.1962 34.921 32.4361C34.7368 32.7969 34.5123 33.1189 34.2569 33.4192C33.02 34.873 31.4332 35.6719 29.5446 35.8747C28.6127 35.9738 27.6746 36.0001 26.738 36.0001C20.8213 35.9985 14.9062 36.0016 8.98955 35.997C7.98486 35.997 6.97553 35.9799 5.98478 35.8081C3.87478 35.4443 2.22765 34.3636 1.10221 32.5259C0.489185 31.5258 0.185767 30.4251 0.0959794 29.2608C0.0232208 28.3118 0 27.3596 0 26.406C0.00309611 20.6142 0 14.8224 0.00309611 9.0322C0.00309611 8.01194 0.0402494 6.99014 0.190411 5.97917C0.229112 5.71443 0.325091 5.45743 0.383917 5.19579C0.46132 4.85828 0.578972 4.53936 0.710557 4.22353C0.801892 4.00678 0.928833 3.80552 1.03874 3.59806C1.2338 3.23269 1.46756 2.89983 1.73072 2.58709C2.76328 1.35938 4.07603 0.594576 5.63801 0.250878C6.43526 0.0759333 7.24954 0.0589032 8.06072 0.0217467C8.38891 0.00626487 8.71709 0.00162031 9.04373 0.00162031C15.0177 0.00162031 20.9901 -0.00147607 26.964 0.00162031C27.9795 0.00162031 28.9951 0.0341322 30.0013 0.187403C30.5973 0.277198 31.1763 0.447498 31.7274 0.690564C32.294 0.94137 32.8265 1.2541 33.3095 1.64734C33.9674 2.18456 34.5201 2.81158 34.9427 3.54852C35.5124 4.54091 35.8189 5.61225 35.9025 6.75172C35.9752 7.74411 36 8.73804 35.9985 9.73198C35.9923 12.4816 35.9969 15.2311 35.9969 17.9823V17.9838ZM18.5581 16.448V16.2978C18.5581 15.725 18.555 15.1522 18.5612 14.5794C18.5612 14.4509 18.5271 14.4137 18.3971 14.4152C17.137 14.4199 15.8768 14.4199 14.6167 14.4152C14.4867 14.4152 14.4511 14.4493 14.4511 14.5794C14.4542 19.2827 14.4542 23.9846 14.4511 28.688C14.4511 28.8196 14.4867 28.8505 14.6152 28.8505C15.9434 28.8459 17.2716 28.8474 18.5983 28.8474C18.8398 28.8474 18.8089 28.8784 18.8089 28.6446C18.8089 26.1552 18.8058 23.6657 18.812 21.1762C18.812 20.5476 18.9776 19.9578 19.3166 19.4221C19.4389 19.2286 19.5628 19.0304 19.7377 18.8849C19.9684 18.6929 20.2207 18.5319 20.5071 18.4251C21.1635 18.182 21.8338 18.1108 22.5164 18.2811C23.0583 18.4173 23.5351 18.6542 23.8741 19.1403C24.032 19.3663 24.1791 19.5908 24.2719 19.8463C24.4345 20.2875 24.45 20.7489 24.45 21.2149C24.4438 23.7044 24.4453 26.1939 24.4376 28.6833C24.4376 28.8289 24.4825 28.8505 24.6141 28.8505C25.9469 28.8459 27.2798 28.8459 28.6127 28.8505C28.769 28.8505 28.8201 28.8211 28.8186 28.6508C28.8124 25.6412 28.8108 22.6299 28.8186 19.6203C28.8186 19.0908 28.7241 18.5814 28.5833 18.0767C28.4765 17.6912 28.3077 17.3289 28.1235 16.979C27.9455 16.6431 27.7674 16.3071 27.5182 16.0037C27.2953 15.7343 27.0383 15.5222 26.7751 15.3039C26.5739 15.1382 26.3386 15.0361 26.1312 14.8859C25.9438 14.7497 25.7333 14.6506 25.5228 14.5685C25.3277 14.4942 25.1141 14.4524 24.9206 14.3781C24.5042 14.2171 24.0691 14.1908 23.6372 14.1613C22.7719 14.101 21.9328 14.2449 21.1232 14.5592C20.8445 14.6676 20.5798 14.8038 20.3182 14.9463C19.908 15.1677 19.5411 15.4556 19.1912 15.7591C18.9606 15.9603 18.7748 16.2065 18.5612 16.4465L18.5581 16.448ZM7.50497 21.6174C7.50497 23.9707 7.50497 26.3255 7.50187 28.6787C7.50187 28.8149 7.53438 28.8521 7.67216 28.8505C9.05147 28.8444 10.4323 28.8459 11.8117 28.8505C11.9448 28.8505 11.9727 28.8103 11.9711 28.6849C11.968 23.983 11.968 19.2796 11.9711 14.5778C11.9711 14.4478 11.9355 14.4137 11.807 14.4137C10.4943 14.4183 9.18306 14.4168 7.87031 14.4168C7.62572 14.4168 7.50342 14.536 7.50342 14.7744C7.50342 17.0549 7.50342 19.3354 7.50342 21.6174H7.50497ZM7.18452 9.65767C7.17523 11.099 8.28364 12.2617 9.68153 12.2726C11.1367 12.2849 12.2946 11.1594 12.3024 9.72424C12.3101 8.31848 11.1739 7.17128 9.76358 7.1527C8.40284 7.13567 7.2031 8.23333 7.18452 9.65612V9.65767Z" fill="white"/>
</g>
<defs>
<clipPath id="clip0_158_24">
<rect width="36" height="36" fill="white"/>
</clipPath>
</defs>
</svg>
