<svg width="48" height="34" viewBox="0 0 48 34" fill="none" xmlns="http://www.w3.org/2000/svg">
<path d="M48.01 30.2C47.9 30.54 47.82 30.9 47.67 31.22C46.87 32.91 45.53 33.78 43.66 33.78C32.99 33.78 22.33 33.78 11.66 33.78C9.24 33.78 6.82 33.78 4.4 33.78C1.82 33.77 0 31.95 0 29.37C0 21.05 0 12.72 0 4.4C0 1.82 1.82 0 4.39 0C17.45 0 30.51 0 43.56 0C45.82 0 47.36 1.2 47.94 3.4C47.96 3.46 47.99 3.52 48.01 3.57V30.19V30.2ZM4.97 2.86C5.09 3 5.15 3.07 5.22 3.14C11.1 9.04 16.97 14.93 22.86 20.83C23.55 21.52 24.52 21.5 25.23 20.78C31.08 14.92 36.92 9.05 42.76 3.19C42.85 3.1 42.92 3 43.03 2.86H4.97ZM5.03 30.91H43.01C38.99 26.94 35.01 22.99 31.01 19.04C29.83 20.21 28.57 21.47 27.31 22.73C25.38 24.66 22.65 24.66 20.72 22.73C19.57 21.58 18.43 20.43 17.28 19.28C17.16 19.16 17.04 19.05 16.92 18.94C16.95 18.99 16.97 19.03 17 19.08C13.02 23.02 9.04 26.95 5.03 30.91ZM2.85 28.71C6.81 24.79 10.82 20.83 14.82 16.87C10.81 12.9 6.81 8.94 2.85 5.02V28.71ZM45.15 28.75V5.06C41.21 8.96 37.2 12.92 33.17 16.9C37.18 20.87 41.19 24.83 45.15 28.75Z" fill="#3A3A3A"/>
</svg>
