<svg width="46" height="46" viewBox="0 0 46 46" fill="none" xmlns="http://www.w3.org/2000/svg">
<path d="M31.71 45.6499C29.69 45.8199 27.46 44.9899 25.27 43.9899C13.42 38.5999 5.20997 29.7899 0.559973 17.6399C-1.02003 11.3599 0.749972 6.47991 5.60997 3.43991C5.94997 3.22991 6.43997 3.14991 6.83997 3.17991C8.04997 3.25991 9.25997 3.43991 10.47 3.55991C10.87 3.59991 11.08 3.75991 11.22 4.13991C12.42 7.34991 13.64 10.5499 14.83 13.7699C14.93 14.0399 14.86 14.4599 14.7 14.7099C13.77 16.1299 12.83 17.5299 11.83 18.8999C11.15 19.8299 11.13 20.6999 11.6 21.7399C13.3 25.5099 15.93 28.5199 19.1 31.0999C20.76 32.4499 22.56 33.5599 24.57 34.3199C25.18 34.5499 25.7 34.5299 26.23 34.1799C27.63 33.2399 29.06 32.3299 30.43 31.3299C31.11 30.8299 31.67 30.7099 32.49 31.0399C35.47 32.2299 38.48 33.3399 41.5 34.4499C41.94 34.6099 42.1 34.8499 42.14 35.2899C42.25 36.4599 42.44 37.6199 42.49 38.7899C42.51 39.2699 42.39 39.8499 42.13 40.2499C39.8 43.9199 36.53 45.6699 31.7 45.6599L31.71 45.6499Z" fill="#3A3A3A"/>
<path d="M22.46 -9.76585e-06C32.98 0.17999 42.53 7.89999 44.98 18.32C45.4 20.12 45.51 22.01 45.66 23.86C45.75 24.96 44.99 25.71 44.01 25.69C43.08 25.68 42.42 24.93 42.39 23.85C42.16 13.97 35.73 6.00999 26.09 3.77999C24.64 3.44999 23.13 3.41999 21.64 3.27999C20.68 3.18999 19.98 2.51999 19.99 1.60999C19.99 0.70999 20.72 0.00999023 21.68 -0.0100098C21.94 -0.0100098 22.2 -0.0100098 22.46 -0.0100098V-9.76585e-06Z" fill="#3A3A3A"/>
<path d="M39.46 23.28C39.46 23.52 39.46 23.76 39.46 24C39.44 24.97 38.77 25.68 37.86 25.71C36.99 25.73 36.27 25.08 36.18 24.14C36.11 23.45 36.12 22.75 36.03 22.06C35.14 15.13 29.14 9.71999 22.17 9.53999C21.97 9.53999 21.78 9.53999 21.58 9.51999C20.62 9.42999 19.94 8.67999 19.99 7.78999C20.04 6.87999 20.75 6.23999 21.74 6.23999C24.62 6.23999 27.35 6.86999 29.87 8.24999C35.81 11.5 38.94 16.57 39.46 23.29V23.28Z" fill="#3A3A3A"/>
<path d="M22.24 12.4499C27.96 12.9599 32.14 16.7299 33.09 22.1499C33.19 22.6999 33.24 23.2699 33.25 23.8299C33.29 24.8799 32.61 25.6499 31.67 25.6899C30.72 25.7299 30.02 25.0099 29.97 23.9499C29.76 19.7899 27.21 16.7299 23.22 15.8799C22.74 15.7799 22.23 15.7499 21.73 15.7199C20.66 15.6399 19.95 14.9599 19.98 14.0199C20.01 13.0499 20.8 12.3999 21.9 12.4199C22.05 12.4199 22.2 12.4399 22.23 12.4399L22.24 12.4499Z" fill="#3A3A3A"/>
</svg>
